<?xml version="1.0" encoding="utf-8"?>
<!-- Generator: Adobe Illustrator 22.1.0, SVG Export Plug-In . SVG Version: 6.00 Build 0)  -->
<svg version="1.1" id="Layer_1" xmlns="http://www.w3.org/2000/svg" xmlns:xlink="http://www.w3.org/1999/xlink" x="0px" y="0px"
	 viewBox="0 0 255.6 49.1" style="enable-background:new 0 0 255.6 49.1;" xml:space="preserve">
<style type="text/css">
	.st0{display:none;}
	.st1{fill:#FFFFFF;}
</style>
<g class="st0">
	<path class="st1" d="M70.6,32.8l1.6,3.1c-1.3,1-3,1.7-4.6,1.7c-3.6,0-6.1-2.6-6.1-6.3V17.5h-3.5v-3.8h3.5V7.3h4.4v6.4h5.5v3.8h-5.5
		v13.4c0,1.6,1.1,2.8,2.4,2.8C69.2,33.7,70.1,33.3,70.6,32.8z M79.6,18.2v-4.5h-4.5V37h4.5V23.8c0.4-4.1,3.8-6.7,8.6-6.7v-3.9
		C84.3,13.2,81.1,15.1,79.6,18.2z M110.3,22.9V37h-4.4v-3.2c-1.7,2.4-4.9,3.7-7.7,3.7c-4.9,0-8.6-2.9-8.6-7.4c0-4.6,4.2-7.7,9.3-7.7
		c2.3,0,4.8,0.5,7,1.3v-0.7c0-2.9-1.3-6-6-6c-2.3,0-4.5,0.9-6.6,1.9l-1.6-3.3c3.3-1.7,6.3-2.3,8.8-2.3
		C106.8,13.2,110.3,17.2,110.3,22.9z M105.9,26.6c-1.9-0.6-4.1-0.9-6.3-0.9c-3.1,0-5.7,1.8-5.7,4.3s2.2,4.1,5.2,4.1
		c2.9,0,6.1-1.4,6.9-4.3C105.9,29.7,105.9,26.6,105.9,26.6z M126.8,13.2c-3.2,0-6,1.6-7.4,3.9v-3.4h-4.5V37h4.5V21.9
		c0.4-2.7,3.1-4.9,6.4-4.9c3.1,0,5.4,2.4,5.4,5.9v14h4.4V22.2C135.5,16.9,131.9,13.2,126.8,13.2z M149.4,23.3
		c-3.9-1.2-5.4-1.8-5.4-3.6c0-1.8,1.8-2.7,4.1-2.7c2,0,4.4,0.8,6.6,2.2l2-3.3c-2.5-1.7-5.6-2.7-8.6-2.7c-4.9,0-8.5,2.8-8.5,7.1
		c0,3.8,2.7,5.3,8,6.8c2.9,0.8,5.3,1.5,5.3,3.6c0,1.8-1.8,3-4.4,3c-2.7,0-5.4-1-7.9-2.8l-2.1,3.2c2.8,2.2,6.5,3.5,9.9,3.5
		c5.1,0,8.8-2.8,8.8-7.2C157.3,25.7,153.2,24.4,149.4,23.3z M171.7,33.7c-4.3,0-7.8-3.8-7.8-8.3c0-4.5,3.5-8.3,7.7-8.3
		c2.2,0,4.2,0.9,5.6,2.5l3-2.8c-2.2-2.2-5.2-3.6-8.6-3.6c-6.7,0-12.3,5.5-12.3,12.1s5.6,12.2,12.2,12.2c3.5,0,6.5-1.4,8.7-3.7
		l-3-2.7C176,32.7,173.9,33.7,171.7,33.7z M204.7,26.9h-18.3c0.6,3.9,3.4,6.7,7.4,6.7c2.4,0,5.3-1.1,6.7-2.5l2.8,2.9
		c-2.1,2.2-6.1,3.6-9.4,3.6c-6.5,0-12-5.1-12-12.2c0-7,5.2-12.1,11.6-12.1C200.6,13.2,204.7,18.6,204.7,26.9z M200.4,23.4
		c-0.5-3.6-2.7-6.2-6.7-6.2c-3.6,0-6.5,2.4-7.2,6.2H200.4z M219.9,13.2c-3.1,0-6,1.6-7.4,3.9v-3.4h-4.5V37h4.5V21.9
		c0.4-2.7,3.1-4.9,6.4-4.9c3.1,0,5.4,2.4,5.4,5.9v14h4.4V22.2C228.7,16.9,225.1,13.2,219.9,13.2z M255.6,5.5V37h-4.4v-4
		c-1.8,2.9-4.7,4.6-8.3,4.6c-6.1,0-10.7-5-10.7-12.2c0-7.1,4.6-12.1,10.7-12.1c3.6,0,6.5,1.7,8.3,4.5V5.5H255.6z M251.2,25.3
		c0-4.9-3-8.3-7.2-8.3c-4.3,0-7.3,3.4-7.3,8.3c0,4.9,3,8.3,7.3,8.3C248.1,33.7,251.2,30.2,251.2,25.3z"/>
	<path class="st1" d="M22.5,0L0,12.3v24.8l22.5,12l22.5-12V12.4C45,12.4,22.5,0,22.5,0z M20.5,43.4L6.8,36.1l8.6-5.7
		c2.2-1.5-0.1-4.8-2.5-3.2L4.1,33V16.8l16.4,8.9V43.4z M6.4,13.4l14-7.7v9.1c0,2.7,4.1,2.7,4.1,0v-9l14.1,7.8l-16.2,8.6L6.4,13.4z
		 M24.5,25.8L40.9,17v16l-8.7-5.8c-2.4-1.6-4.8,1.7-2.5,3.2l8.5,5.7l-13.6,7.3C24.5,43.4,24.5,25.8,24.5,25.8z"/>
</g>
<image style="overflow:visible;" width="500" height="96" xlink:href="CustomFit/images/logo.png"  transform="matrix(0.5114 0 0 0.5114 -5.814767e-02 0)">
</image>
</svg>
